<?xml version="1.0" encoding="UTF-8"?>
<svg width="20px" height="20px" viewBox="0 0 20 20" version="1.1" xmlns="http://www.w3.org/2000/svg" xmlns:xlink="http://www.w3.org/1999/xlink">
    <title>icon</title>
    <g id="Page-1" stroke="none" stroke-width="1" fill="none" fill-rule="evenodd">
        <g id="Group-19" transform="translate(-11.000000, -38.000000)" fill="#FFFFFF">
            <g id="Group-20" transform="translate(11.000000, 25.000000)">
                <g id="indicador-copy" transform="translate(0.000000, 13.000000)">
                    <path d="M19.9983564,10.4583333 C20.0328364,9.58333333 19.5156375,9.33333333 19.3087579,9.33333333 L11.7921343,9.33333333 C11.1370157,9.33333333 11.033576,10.1666667 11.033576,10.25 L11.033576,20 L19.9983564,20 L19.9983564,10.4583333 Z M14.8263677,17.4583333 C14.8263677,17.9166667 14.5160484,18.2916667 14.1367692,18.2916667 L13.4471707,18.2916667 C13.0678915,18.2916667 12.7575722,17.9166667 12.7575722,17.4583333 L12.7575722,16.625 C12.7575722,16.1666667 13.0678915,15.7916667 13.4471707,15.7916667 L14.1367692,15.7916667 C14.5160484,15.7916667 14.8263677,16.1666667 14.8263677,16.625 L14.8263677,17.4583333 Z M14.8263677,13.2083333 C14.8263677,13.6666667 14.5160484,14.0416667 14.1367692,14.0416667 L13.4471707,14.0416667 C13.0678915,14.0416667 12.7575722,13.6666667 12.7575722,13.2083333 L12.7575722,12.375 C12.7575722,11.9166667 13.0678915,11.5416667 13.4471707,11.5416667 L14.1367692,11.5416667 C14.5160484,11.5416667 14.8263677,11.9166667 14.8263677,12.375 L14.8263677,13.2083333 Z M18.2743602,17.4583333 C18.2743602,17.9166667 17.9640409,18.2916667 17.5847617,18.2916667 L16.8951632,18.2916667 C16.515884,18.2916667 16.2055647,17.9166667 16.2055647,17.4583333 L16.2055647,16.625 C16.2055647,16.1666667 16.515884,15.7916667 16.8951632,15.7916667 L17.5847617,15.7916667 C17.9640409,15.7916667 18.2743602,16.1666667 18.2743602,16.625 L18.2743602,17.4583333 Z M18.2743602,13.2083333 C18.2743602,13.6666667 17.9640409,14.0416667 17.5847617,14.0416667 L16.8951632,14.0416667 C16.515884,14.0416667 16.2055647,13.6666667 16.2055647,13.2083333 L16.2055647,12.375 C16.2055647,11.9166667 16.515884,11.5416667 16.8951632,11.5416667 L17.5847617,11.5416667 C17.9640409,11.5416667 18.2743602,11.9166667 18.2743602,12.375 L18.2743602,13.2083333 Z M13.1023715,5.95833333 L13.1023715,1.125 C13.1368514,0.25 12.6196525,0 12.412773,0 L0.758558348,0 C0.103439775,0 0,0.833333333 0,0.916666667 L0,20 L8.96478047,20 L8.96478047,7.79166667 C8.96478047,7.79166667 8.96478047,6.79166667 9.72333882,6.79166667 L12.4472529,6.79166667 C12.4472529,6.79166667 13.1023715,6.29166667 13.1023715,5.95833333 Z M3.79279174,17.0416667 C3.79279174,17.5 3.48247241,17.875 3.10319324,17.875 L2.41359474,17.875 C2.03431557,17.875 1.72399624,17.5 1.72399624,17.0416667 L1.72399624,16.2083333 C1.72399624,15.75 2.03431557,15.375 2.41359474,15.375 L3.10319324,15.375 C3.48247241,15.375 3.79279174,15.75 3.79279174,16.2083333 L3.79279174,17.0416667 Z M3.79279174,12.75 C3.79279174,13.2083333 3.48247241,13.5833333 3.10319324,13.5833333 L2.41359474,13.5833333 C2.03431557,13.5833333 1.72399624,13.2083333 1.72399624,12.75 L1.72399624,11.9166667 C1.72399624,11.4583333 2.03431557,11.0833333 2.41359474,11.0833333 L3.10319324,11.0833333 C3.48247241,11.0833333 3.79279174,11.4583333 3.79279174,11.9166667 L3.79279174,12.75 Z M3.79279174,8.5 C3.79279174,8.95833333 3.48247241,9.33333333 3.10319324,9.33333333 L2.41359474,9.33333333 C2.03431557,9.33333333 1.72399624,8.95833333 1.72399624,8.5 L1.72399624,7.66666667 C1.72399624,7.20833333 2.03431557,6.83333333 2.41359474,6.83333333 L3.10319324,6.83333333 C3.48247241,6.83333333 3.79279174,7.20833333 3.79279174,7.66666667 L3.79279174,8.5 Z M3.79279174,4.25 C3.79279174,4.70833333 3.48247241,5.08333333 3.10319324,5.08333333 L2.41359474,5.08333333 C2.03431557,5.08333333 1.72399624,4.70833333 1.72399624,4.25 L1.72399624,3.41666667 C1.72399624,2.95833333 2.03431557,2.58333333 2.41359474,2.58333333 L3.10319324,2.58333333 C3.48247241,2.58333333 3.79279174,2.95833333 3.79279174,3.41666667 L3.79279174,4.25 Z M7.58558348,17.0416667 C7.58558348,17.5 7.27526415,17.875 6.89598498,17.875 L6.20638648,17.875 C5.82710731,17.875 5.51678798,17.5 5.51678798,17.0416667 L5.51678798,16.2083333 C5.51678798,15.75 5.82710731,15.375 6.20638648,15.375 L6.89598498,15.375 C7.27526415,15.375 7.58558348,15.75 7.58558348,16.2083333 L7.58558348,17.0416667 Z M7.58558348,12.75 C7.58558348,13.2083333 7.27526415,13.5833333 6.89598498,13.5833333 L6.20638648,13.5833333 C5.82710731,13.5833333 5.51678798,13.2083333 5.51678798,12.75 L5.51678798,11.9166667 C5.51678798,11.4583333 5.82710731,11.0833333 6.20638648,11.0833333 L6.89598498,11.0833333 C7.27526415,11.0833333 7.58558348,11.4583333 7.58558348,11.9166667 L7.58558348,12.75 Z M7.58558348,8.5 C7.58558348,8.95833333 7.27526415,9.33333333 6.89598498,9.33333333 L6.20638648,9.33333333 C5.82710731,9.33333333 5.51678798,8.95833333 5.51678798,8.5 L5.51678798,7.66666667 C5.51678798,7.20833333 5.82710731,6.83333333 6.20638648,6.83333333 L6.89598498,6.83333333 C7.27526415,6.83333333 7.58558348,7.20833333 7.58558348,7.66666667 L7.58558348,8.5 Z M7.58558348,4.25 C7.58558348,4.70833333 7.27526415,5.08333333 6.89598498,5.08333333 L6.20638648,5.08333333 C5.82710731,5.08333333 5.51678798,4.70833333 5.51678798,4.25 L5.51678798,3.41666667 C5.51678798,2.95833333 5.82710731,2.58333333 6.20638648,2.58333333 L6.89598498,2.58333333 C7.27526415,2.58333333 7.58558348,2.95833333 7.58558348,3.41666667 L7.58558348,4.25 Z M11.3783752,4.25 C11.3783752,4.70833333 11.0680559,5.08333333 10.6887767,5.08333333 L9.99917822,5.08333333 C9.61989904,5.08333333 9.30957972,4.70833333 9.30957972,4.25 L9.30957972,3.41666667 C9.30957972,2.95833333 9.61989904,2.58333333 9.99917822,2.58333333 L10.6887767,2.58333333 C11.0680559,2.58333333 11.3783752,2.95833333 11.3783752,3.41666667 L11.3783752,4.25 Z" id="icon"></path>
                </g>
            </g>
        </g>
    </g>
</svg>