<?xml version="1.0" encoding="UTF-8"?>
<svg width="24px" height="24px" viewBox="0 0 24 24" version="1.1" xmlns="http://www.w3.org/2000/svg" xmlns:xlink="http://www.w3.org/1999/xlink">
    <title>icon-oportunidades</title>
    <g id="Page-1" stroke="none" stroke-width="1" fill="none" fill-rule="evenodd">
        <g id="icon-oportunidades">
            <rect id="background" fill="#FCB95B" x="0" y="0" width="24" height="24" rx="4"></rect>
            <path d="M17.6046875,17.3125 C17.8703125,17.3125 18.109375,17.5515625 18.109375,17.8171875 L18.109375,17.8171875 L18.109375,17.84375 C18.109375,18.7203125 17.3921875,19.4375 16.515625,19.4375 L16.515625,19.4375 L7.484375,19.4375 C6.6078125,19.4375 5.890625,18.7203125 5.890625,17.84375 L5.890625,17.84375 L5.890625,17.8171875 C5.890625,17.5515625 6.1296875,17.3125 6.3953125,17.3125 L6.3953125,17.3125 Z M12,4.5625 C12.8765625,4.5625 13.59375,5.2796875 13.59375,6.15625 C13.59375,6.846875 13.16875,7.4046875 12.584375,7.64375 C12.53125,7.85625 12.53125,8.06875 12.53125,8.3078125 C12.6109375,9.715625 13.753125,10.8578125 15.1609375,10.9375 C16.3828125,10.990625 17.41875,10.2734375 17.8703125,9.2375 C17.525,8.9453125 17.3125,8.49375 17.3125,8.015625 C17.3125,7.1390625 18.0296875,6.421875 18.90625,6.421875 C19.7828125,6.421875 20.5,7.1390625 20.5,8.015625 C20.5,8.8921875 19.7828125,9.609375 18.90625,9.609375 L18.90625,9.609375 L18.1625,15.29375 C18.109375,15.5328125 17.896875,15.71875 17.6578125,15.71875 L17.6578125,15.71875 L6.3421875,15.71875 C6.0765625,15.71875 5.8640625,15.5328125 5.8375,15.29375 L5.8375,15.29375 L5.09375,9.609375 L5.09375,9.609375 L4.94922759,9.60283002 C4.13971354,9.5291956 3.5,8.84348958 3.5,8.015625 C3.5,7.1390625 4.2171875,6.421875 5.09375,6.421875 C5.9703125,6.421875 6.6875,7.1390625 6.6875,8.015625 C6.6875,8.49375 6.475,8.9453125 6.1296875,9.2375 C6.5546875,10.2734375 7.6171875,11.0171875 8.8390625,10.9375 C10.246875,10.8578125 11.3890625,9.715625 11.46875,8.3078125 C11.46875,8.06875 11.46875,7.85625 11.415625,7.64375 C10.83125,7.4046875 10.40625,6.8203125 10.40625,6.15625 C10.40625,5.2796875 11.1234375,4.5625 12,4.5625 Z" id="icon" fill="#FFFFFF"></path>
        </g>
    </g>
</svg>