<?xml version="1.0" encoding="UTF-8"?>
<svg width="40px" height="40px" viewBox="0 0 40 40" version="1.1" xmlns="http://www.w3.org/2000/svg" xmlns:xlink="http://www.w3.org/1999/xlink">
    <title>pasivo-cuenta-de-ahorro</title>
    <defs>
        <rect id="path-1" x="0" y="0" width="40" height="40" rx="20"></rect>
    </defs>
    <g id="Page-1" stroke="none" stroke-width="1" fill="none" fill-rule="evenodd">
        <g id="Consumo---Portal-Accesos-directos" transform="translate(-431.000000, -370.000000)">
            <g id="Shortcuts" transform="translate(371.000000, 330.000000)">
                <g id="Buttons" transform="translate(20.000000, 20.000000)">
                    <g id="pasivo-cuenta-de-ahorro" transform="translate(40.000000, 20.000000)">
                        <mask id="mask-2" fill="white">
                            <use xlink:href="#path-1"></use>
                        </mask>
                        <use id="Icon-Background" fill="#4BC076" xlink:href="#path-1"></use>
                        <g id="new_custom17" mask="url(#mask-2)" fill="#FFFFFF" fill-rule="nonzero">
                            <g transform="translate(10.500000, 8.000000)">
                                <path d="M6.75,3.55 C6.85,3.85 7.15,4 7.45,4 L11.5,4 C11.8,4 12.1,3.85 12.2,3.55 L13.8,0.6 C13.9,0.3 13.7,0.05 13.45,0.05 L9.5,0.05 L5.6,0.05 C5.3,0.05 5.1,0.35 5.25,0.6 L6.75,3.55 Z" id="Path"></path>
                                <path d="M11.85,6.4 L7.15,6.4 C3.2,6.4 0,9.65 0,13.6 L0,21.6 C0,22.9 1.05,24 2.4,24 L16.6,24 C17.9,24 19,22.9 19,21.6 L19,13.6 C19,9.65 15.75,6.4 11.85,6.4 Z M10.7,19.85 L10.7,21.2 C10.7,21.45 10.45,21.6 10.2,21.6 L8.6,21.6 C8.35,21.6 8.3,21.45 8.3,21.2 L8.3,19.9 C7.1,19.65 6.1,19.15 5.85,18.9 C5.55,18.6 5.45,18.35 5.7,18 L6.2,17.2 C6.3,17 6.55,16.9 6.8,16.9 C6.95,16.9 7.1,16.95 7.2,17 L7.25,17 C8.05,17.5 8.75,17.7 9.25,17.7 C9.8,17.7 10.25,17.4 10.25,17.1 C10.25,16.85 10.1,16.45 8.6,15.95 C7.25,15.45 5.6,14.65 5.6,12.8 C5.6,11.7 6.3,10.45 8.3,10.05 L8.3,8.85 C8.3,8.6 8.4,8.45 8.6,8.45 L10.2,8.45 C10.45,8.45 10.7,8.6 10.7,8.85 L10.7,10 C11.5,10.2 12.35,10.6 12.65,10.8 C12.8,10.9 12.9,11.1 12.95,11.3 C13,11.5 12.9,11.7 12.8,11.8 L12.2,12.5 C12.05,12.7 11.75,12.85 11.55,12.85 C11.45,12.85 11.3,12.8 11.2,12.75 C10.4,12.3 9.75,12.05 9.3,12.05 C8.65,12.05 8.35,12.35 8.35,12.55 C8.35,12.85 8.5,13.15 9.85,13.65 C11.5,14.2 13.35,15.1 13.35,17 C13.3,18.35 12.25,19.5 10.7,19.85 Z" id="Shape"></path>
                            </g>
                        </g>
                    </g>
                </g>
            </g>
        </g>
    </g>
</svg>