<?xml version="1.0" encoding="UTF-8"?>
<svg width="907px" height="220px" viewBox="0 0 907 220" version="1.1" xmlns="http://www.w3.org/2000/svg" xmlns:xlink="http://www.w3.org/1999/xlink">
    <title>background-bitacora</title>
    <g id="Page-3" stroke="none" stroke-width="1" fill="none" fill-rule="evenodd">
        <g id="background-bitacora">
            <rect id="Rectangle" fill="#F3F2F2" x="0" y="0" width="907" height="220" rx="4"></rect>
            <path d="M0,145.226235 C0,145.226235 16.0490775,125.605461 38.5591464,134.159311 C61.0692153,142.71316 53.9643182,170.641956 53.9643182,170.641956 C53.9643182,170.641956 64.039642,163.808897 75.0111073,167.237953 C85.9825725,170.667008 84.6555939,185.184909 84.6555939,185.184909 C84.6555939,185.184909 94.5256826,180.800729 102.506354,190.691753 C110.487026,200.582778 106.040786,204.94034 106.040786,204.94034 C106.040786,204.94034 116.402812,187.937548 139.794923,197.470009 C155.411596,186.150995 178.885174,181.242278 197.409607,200.197596 C207.895401,211.057837 197.135732,220 197.135732,220 L0,220 L0,145.226235 Z" id="Trazado_2741" fill="#FFFFFF" fill-rule="nonzero"></path>
            <path d="M907,220 L907,145.226235 L906.696767,144.873987 C904.390797,142.267229 889.150117,126.289769 868.440854,134.159311 C845.930785,142.71316 853.035682,170.641956 853.035682,170.641956 L852.66711,170.40741 C850.760251,169.235993 841.727609,164.194185 831.988893,167.237953 C821.017427,170.667008 822.344406,185.184909 822.344406,185.184909 L822.113136,185.091976 C820.583094,184.511386 811.756057,181.690921 804.493646,190.691753 C797.222367,199.703575 800.266959,204.121941 800.865672,204.836224 L800.959214,204.94034 C800.959214,204.94034 790.597188,187.937548 767.205077,197.470009 C751.588404,186.150995 728.114826,181.242278 709.590393,200.197596 C699.104599,211.057837 709.864268,220 709.864268,220 L907,220 Z" id="Trazado_2741" fill="#FFFFFF" fill-rule="nonzero"></path>
        </g>
    </g>
</svg>