<?xml version="1.0" encoding="UTF-8"?>
<svg width="40px" height="40px" viewBox="0 0 40 40" version="1.1" xmlns="http://www.w3.org/2000/svg" xmlns:xlink="http://www.w3.org/1999/xlink">
    <title>pasivo-cuenta-de-ahorro</title>
    <defs>
        <rect id="path-1" x="0" y="0" width="40" height="40" rx="20"></rect>
    </defs>
    <g id="Page-1" stroke="none" stroke-width="1" fill="none" fill-rule="evenodd">
        <g id="Consumo---Portal-Accesos-directos" transform="translate(-431.000000, -370.000000)">
            <g id="Shortcuts" transform="translate(371.000000, 330.000000)">
                <g id="Buttons" transform="translate(20.000000, 20.000000)">
                    <g id="pasivo-cuenta-de-ahorro" transform="translate(40.000000, 20.000000)">
                        <mask id="mask-2" fill="white">
                            <use xlink:href="#path-1"></use>
                        </mask>
                        <use id="Icon-Background" fill="#4BC076" xlink:href="#path-1"></use>
                        <g id="new_custom17" mask="url(#mask-2)" fill="#FFFFFF" fill-rule="nonzero">
                            <g transform="translate(11.000000, 8.000000)">
                                <path d="M6.1875,3.25416667 C6.27916667,3.52916667 6.55416667,3.66666667 6.82916667,3.66666667 L10.5416667,3.66666667 C10.8166667,3.66666667 11.0916667,3.52916667 11.1833333,3.25416667 L12.65,0.55 C12.7416667,0.275 12.5583333,0.0458333333 12.3291667,0.0458333333 L8.70833333,0.0458333333 L5.13333333,0.0458333333 C4.85833333,0.0458333333 4.675,0.320833333 4.8125,0.55 L6.1875,3.25416667 Z" id="Path"></path>
                                <path d="M10.8625,5.86666667 L6.55416667,5.86666667 C2.93333333,5.86666667 0,8.84583333 0,12.4666667 L0,19.8 C0,20.9916667 0.9625,22 2.2,22 L15.2166667,22 C16.4083333,22 17.4166667,20.9916667 17.4166667,19.8 L17.4166667,12.4666667 C17.4166667,8.84583333 14.4375,5.86666667 10.8625,5.86666667 Z M9.80833333,18.1958333 L9.80833333,19.4333333 C9.80833333,19.6625 9.57916667,19.8 9.35,19.8 L7.88333333,19.8 C7.65416667,19.8 7.60833333,19.6625 7.60833333,19.4333333 L7.60833333,18.2416667 C6.50833333,18.0125 5.59166667,17.5541667 5.3625,17.325 C5.0875,17.05 4.99583333,16.8208333 5.225,16.5 L5.68333333,15.7666667 C5.775,15.5833333 6.00416667,15.4916667 6.23333333,15.4916667 C6.37083333,15.4916667 6.50833333,15.5375 6.6,15.5833333 L6.64583333,15.5833333 C7.37916667,16.0416667 8.02083333,16.225 8.47916667,16.225 C8.98333333,16.225 9.39583333,15.95 9.39583333,15.675 C9.39583333,15.4458333 9.25833333,15.0791667 7.88333333,14.6208333 C6.64583333,14.1625 5.13333333,13.4291667 5.13333333,11.7333333 C5.13333333,10.725 5.775,9.57916667 7.60833333,9.2125 L7.60833333,8.1125 C7.60833333,7.88333333 7.7,7.74583333 7.88333333,7.74583333 L9.35,7.74583333 C9.57916667,7.74583333 9.80833333,7.88333333 9.80833333,8.1125 L9.80833333,9.16666667 C10.5416667,9.35 11.3208333,9.71666667 11.5958333,9.9 C11.7333333,9.99166667 11.825,10.175 11.8708333,10.3583333 C11.9166667,10.5416667 11.825,10.725 11.7333333,10.8166667 L11.1833333,11.4583333 C11.0458333,11.6416667 10.7708333,11.7791667 10.5875,11.7791667 C10.4958333,11.7791667 10.3583333,11.7333333 10.2666667,11.6875 C9.53333333,11.275 8.9375,11.0458333 8.525,11.0458333 C7.92916667,11.0458333 7.65416667,11.3208333 7.65416667,11.5041667 C7.65416667,11.7791667 7.79166667,12.0541667 9.02916667,12.5125 C10.5416667,13.0166667 12.2375,13.8416667 12.2375,15.5833333 C12.1916667,16.8208333 11.2291667,17.875 9.80833333,18.1958333 Z" id="Shape"></path>
                            </g>
                        </g>
                    </g>
                </g>
            </g>
        </g>
    </g>
</svg>