<?xml version="1.0" encoding="utf-8"?>
<!-- Generator: Adobe Illustrator 24.3.0, SVG Export Plug-In . SVG Version: 6.00 Build 0)  -->
<svg version="1.1" id="Layer_1" xmlns="http://www.w3.org/2000/svg" xmlns:xlink="http://www.w3.org/1999/xlink" x="0px" y="0px"
	 viewBox="0 0 841.89 595.28" style="enable-background:new 0 0 841.89 595.28;" xml:space="preserve">
<style type="text/css">
	.st0{fill:#ADADAD;}
	.st1{fill:#657672;}
	.st2{fill:#A4ABA9;}
	.st3{fill:#FFFFFF;}
	.st4{fill:#E17C3A;}
	.st5{fill:#644422;}
	.st6{fill:#DBE4E4;}
	.st7{fill:#C77039;}
	.st8{fill:#BDC6C5;}
	.st9{fill:#BD6C37;}
	.st10{fill:#AB6435;}
	.st11{fill:#627675;}
	.st12{fill:#99AEAE;}
	.st13{fill:#935A2F;}
	.st14{fill:#8DA4A5;}
	.st15{fill:#89572D;}
	.st16{fill:#86542C;}
	.st17{fill:#80522A;}
	.st18{fill:#657670;}
</style>
<g>
	<g>
		<path class="st0" d="M385.04,302.42v1.92h2.29v0.5h-2.29v2.31h-0.56v-5.23h3.24v0.5H385.04z"/>
		<path class="st0" d="M390.6,306.78c-0.25,0.26-0.59,0.41-1.04,0.41s-0.79-0.15-1.04-0.41c-0.37-0.37-0.44-0.88-0.44-1.44
			s0.07-1.07,0.44-1.44c0.25-0.26,0.59-0.41,1.04-0.41s0.79,0.15,1.04,0.41c0.37,0.37,0.44,0.88,0.44,1.44
			S390.97,306.41,390.6,306.78z M390.22,304.23c-0.18-0.18-0.4-0.26-0.66-0.26c-0.26,0-0.48,0.09-0.65,0.26
			c-0.26,0.26-0.29,0.7-0.29,1.12c0,0.4,0.02,0.84,0.29,1.12c0.18,0.18,0.4,0.26,0.65,0.26c0.26,0,0.48-0.09,0.66-0.26
			c0.26-0.27,0.29-0.71,0.29-1.12C390.51,304.93,390.49,304.49,390.22,304.23z"/>
		<path class="st0" d="M394.12,307.15v-2.22c0-0.64-0.34-0.96-0.89-0.96s-0.9,0.33-0.9,0.96v2.22h-0.53v-3.61h0.53v0.4
			c0.26-0.29,0.61-0.44,1.01-0.44c0.39,0,0.7,0.12,0.93,0.34c0.26,0.25,0.37,0.59,0.37,1.01v2.31H394.12z"/>
		<path class="st0" d="M397.72,307.15v-0.43c-0.3,0.38-0.62,0.48-1.03,0.48c-0.37,0-0.69-0.12-0.88-0.32
			c-0.36-0.37-0.44-0.95-0.44-1.53c0-0.58,0.08-1.17,0.44-1.53c0.19-0.19,0.51-0.32,0.88-0.32c0.4,0,0.72,0.09,1.02,0.46v-2.03h0.53
			v5.23H397.72z M396.81,303.96c-0.79,0-0.91,0.68-0.91,1.38c0,0.7,0.12,1.38,0.91,1.38c0.79,0,0.9-0.68,0.9-1.38
			C397.72,304.64,397.6,303.96,396.81,303.96z"/>
		<path class="st0" d="M401.52,306.78c-0.25,0.26-0.59,0.41-1.04,0.41s-0.79-0.15-1.04-0.41c-0.37-0.37-0.44-0.88-0.44-1.44
			s0.07-1.07,0.44-1.44c0.25-0.26,0.59-0.41,1.04-0.41s0.79,0.15,1.04,0.41c0.37,0.37,0.44,0.88,0.44,1.44
			S401.89,306.41,401.52,306.78z M401.15,304.23c-0.18-0.18-0.4-0.26-0.66-0.26c-0.26,0-0.48,0.09-0.65,0.26
			c-0.26,0.26-0.29,0.7-0.29,1.12c0,0.4,0.02,0.84,0.29,1.12c0.18,0.18,0.4,0.26,0.65,0.26c0.26,0,0.48-0.09,0.66-0.26
			c0.26-0.27,0.29-0.71,0.29-1.12C401.43,304.93,401.41,304.49,401.15,304.23z"/>
		<path class="st0" d="M403.86,307.19c-0.62,0-1.09-0.14-1.48-0.52l0.35-0.35c0.28,0.29,0.68,0.42,1.12,0.42
			c0.6,0,0.96-0.21,0.96-0.64c0-0.32-0.18-0.49-0.6-0.53l-0.59-0.05c-0.7-0.06-1.08-0.37-1.08-0.97c0-0.66,0.55-1.06,1.33-1.06
			c0.52,0,0.97,0.12,1.3,0.39l-0.35,0.34c-0.26-0.2-0.59-0.29-0.96-0.29c-0.53,0-0.81,0.22-0.81,0.59c0,0.32,0.2,0.48,0.65,0.53
			l0.57,0.05c0.63,0.06,1.06,0.29,1.06,0.98C405.33,306.79,404.75,307.19,403.86,307.19z"/>
	</g>
	<g>
		<g>
			<path class="st1" d="M384.92,294.77c0,0.4,0.03,0.76,0.09,1.08c0.06,0.32,0.16,0.59,0.32,0.82c0.15,0.22,0.37,0.4,0.64,0.51
				c0.27,0.12,0.63,0.18,1.08,0.18c0.31,0,0.59-0.04,0.83-0.11c0.24-0.07,0.47-0.22,0.68-0.45l0.77,0.71
				c-0.31,0.33-0.65,0.56-1.04,0.7c-0.39,0.14-0.8,0.22-1.24,0.22c-0.59,0-1.1-0.09-1.52-0.27c-0.42-0.18-0.76-0.43-1.02-0.74
				c-0.27-0.32-0.46-0.7-0.59-1.15c-0.13-0.45-0.19-0.94-0.19-1.49v-0.38c0-0.52,0.07-0.98,0.22-1.39c0.15-0.41,0.36-0.76,0.64-1.05
				c0.28-0.29,0.63-0.5,1.04-0.65c0.41-0.15,0.88-0.23,1.41-0.23c0.41,0,0.82,0.07,1.22,0.2c0.39,0.14,0.74,0.36,1.04,0.66
				l-0.78,0.79c-0.22-0.22-0.44-0.37-0.67-0.45c-0.23-0.08-0.5-0.12-0.81-0.12c-0.73,0-1.26,0.19-1.61,0.58
				c-0.34,0.38-0.52,0.95-0.52,1.68"/>
			<path class="st1" d="M392.79,295.67c-0.07-0.1-0.17-0.16-0.29-0.2c-0.12-0.04-0.23-0.06-0.35-0.06h-0.67v2.91h-1.15v-7.1h3.35
				c0.3,0,0.57,0.05,0.83,0.14c0.25,0.1,0.47,0.23,0.65,0.42c0.18,0.18,0.32,0.39,0.42,0.64c0.1,0.25,0.15,0.52,0.15,0.83
				c0,0.61-0.15,1.11-0.46,1.51c-0.31,0.39-0.75,0.61-1.32,0.65l1.35,1.7c0.11,0.14,0.21,0.23,0.3,0.27
				c0.09,0.04,0.22,0.06,0.39,0.06v0.88c-0.07,0.03-0.15,0.06-0.25,0.09c-0.09,0.02-0.18,0.04-0.27,0.04c-0.2,0-0.39-0.07-0.55-0.21
				c-0.16-0.14-0.3-0.28-0.42-0.43 M391.48,294.34h1.91c0.43,0,0.74-0.08,0.92-0.24c0.18-0.16,0.27-0.44,0.27-0.85
				c0-0.33-0.08-0.57-0.24-0.73c-0.16-0.16-0.43-0.24-0.82-0.24h-2.03V294.34z"/>
			<polyline class="st1" points="402.22,298.32 397.04,298.32 397.04,291.22 402.25,291.22 401.92,292.29 398.18,292.29 
				398.18,294.02 401.58,294.02 401.58,295.1 398.18,295.1 398.18,297.24 402.22,297.24 			"/>
			<path class="st1" d="M406.69,298.32h-3.36v-7.1h3.34c0.52,0,0.95,0.1,1.3,0.29c0.35,0.19,0.63,0.44,0.85,0.76
				c0.22,0.32,0.37,0.68,0.46,1.1c0.09,0.42,0.14,0.85,0.14,1.3c0,0.47-0.04,0.92-0.12,1.36c-0.08,0.44-0.22,0.83-0.42,1.17
				c-0.2,0.34-0.48,0.61-0.84,0.82C407.68,298.21,407.23,298.32,406.69,298.32 M404.48,297.24h1.85c0.41,0,0.73-0.07,0.97-0.22
				c0.24-0.15,0.43-0.34,0.56-0.58c0.13-0.24,0.21-0.51,0.26-0.83c0.04-0.31,0.06-0.63,0.06-0.96c0-0.31-0.02-0.61-0.07-0.9
				c-0.05-0.29-0.14-0.54-0.27-0.76c-0.14-0.22-0.33-0.39-0.57-0.52c-0.24-0.13-0.56-0.19-0.94-0.19h-1.84V297.24z"/>
			<rect x="410.45" y="291.22" class="st1" width="1.15" height="7.1"/>
			<path class="st1" d="M413.85,294.77c0,0.4,0.03,0.76,0.09,1.08c0.06,0.32,0.16,0.59,0.32,0.82c0.15,0.22,0.37,0.4,0.64,0.51
				c0.28,0.12,0.63,0.18,1.08,0.18c0.31,0,0.59-0.04,0.83-0.11c0.24-0.07,0.47-0.22,0.68-0.45l0.77,0.71
				c-0.31,0.33-0.65,0.56-1.04,0.7c-0.39,0.14-0.8,0.22-1.24,0.22c-0.59,0-1.1-0.09-1.52-0.27c-0.42-0.18-0.76-0.43-1.03-0.74
				c-0.27-0.32-0.46-0.7-0.59-1.15c-0.13-0.45-0.19-0.94-0.19-1.49v-0.38c0-0.52,0.07-0.98,0.22-1.39c0.15-0.41,0.36-0.76,0.64-1.05
				c0.28-0.29,0.63-0.5,1.04-0.65c0.41-0.15,0.88-0.23,1.41-0.23c0.41,0,0.82,0.07,1.22,0.2c0.39,0.14,0.74,0.36,1.04,0.66
				l-0.77,0.79c-0.22-0.22-0.44-0.37-0.67-0.45c-0.23-0.08-0.5-0.12-0.81-0.12c-0.73,0-1.26,0.19-1.61,0.58
				c-0.35,0.38-0.52,0.95-0.52,1.68"/>
			<path class="st1" d="M422.5,298.44c-0.57,0-1.07-0.09-1.51-0.27c-0.43-0.18-0.79-0.43-1.08-0.76c-0.29-0.33-0.5-0.71-0.65-1.16
				c-0.15-0.45-0.22-0.94-0.22-1.48v-0.27c0-0.5,0.09-0.95,0.26-1.37c0.17-0.42,0.41-0.78,0.71-1.07c0.31-0.3,0.67-0.53,1.09-0.69
				c0.42-0.17,0.88-0.25,1.39-0.25c0.5,0,0.97,0.08,1.39,0.25c0.42,0.17,0.78,0.4,1.09,0.69c0.3,0.3,0.54,0.65,0.71,1.07
				c0.17,0.42,0.25,0.88,0.25,1.37v0.27c0,0.54-0.07,1.03-0.21,1.48c-0.14,0.45-0.36,0.84-0.65,1.16c-0.29,0.33-0.65,0.58-1.08,0.76
				C423.57,298.35,423.07,298.44,422.5,298.44 M422.5,292.17c-0.75,0-1.31,0.21-1.69,0.63c-0.38,0.42-0.57,0.99-0.57,1.7v0.24
				c0,0.37,0.04,0.72,0.11,1.04c0.07,0.32,0.2,0.6,0.38,0.83c0.18,0.23,0.41,0.42,0.69,0.55c0.28,0.13,0.64,0.2,1.06,0.2
				c0.44,0,0.8-0.06,1.09-0.19c0.29-0.13,0.52-0.3,0.69-0.54c0.17-0.23,0.3-0.51,0.37-0.83c0.08-0.32,0.11-0.68,0.11-1.07v-0.24
				c0-0.71-0.19-1.28-0.57-1.7C423.8,292.38,423.24,292.17,422.5,292.17"/>
			<path class="st1" d="M429.41,295.67c-0.07-0.1-0.17-0.16-0.28-0.2c-0.12-0.04-0.23-0.06-0.35-0.06h-0.67v2.91h-1.15v-7.1h3.35
				c0.3,0,0.58,0.05,0.83,0.14c0.25,0.1,0.47,0.23,0.65,0.42c0.18,0.18,0.32,0.39,0.42,0.64c0.1,0.25,0.15,0.52,0.15,0.83
				c0,0.61-0.15,1.11-0.46,1.51c-0.31,0.39-0.75,0.61-1.32,0.65l1.35,1.7c0.11,0.14,0.21,0.23,0.3,0.27
				c0.09,0.04,0.22,0.06,0.39,0.06v0.88c-0.07,0.03-0.15,0.06-0.25,0.09c-0.09,0.02-0.18,0.04-0.26,0.04c-0.2,0-0.39-0.07-0.55-0.21
				c-0.17-0.14-0.3-0.28-0.42-0.43 M428.11,294.34h1.91c0.44,0,0.74-0.08,0.92-0.24c0.18-0.16,0.26-0.44,0.26-0.85
				c0-0.33-0.08-0.57-0.24-0.73c-0.16-0.16-0.43-0.24-0.82-0.24h-2.03V294.34z"/>
			<path class="st1" d="M433.66,298.32v-7.1h3.51c0.33,0,0.63,0.06,0.89,0.16c0.26,0.11,0.47,0.26,0.64,0.46
				c0.17,0.19,0.3,0.43,0.39,0.69c0.09,0.27,0.13,0.57,0.13,0.89c0,0.33-0.04,0.63-0.13,0.92c-0.09,0.29-0.21,0.53-0.38,0.74
				c-0.17,0.21-0.38,0.37-0.64,0.49c-0.26,0.12-0.56,0.18-0.91,0.18h-2.36v2.56 M434.81,292.28v2.39h1.96c0.45,0,0.78-0.1,0.99-0.3
				c0.21-0.2,0.31-0.52,0.31-0.95c0-0.41-0.11-0.7-0.33-0.88c-0.22-0.18-0.54-0.27-0.97-0.27H434.81z"/>
		</g>
		<g>
			<path class="st2" d="M443.4,298.31c-1.84,0-3.24-1.25-3.24-3.75c0-2.5,1.4-3.75,3.24-3.75c1.01,0,1.65,0.27,2.41,1.09l-0.73,0.68
				c-0.55-0.61-0.98-0.82-1.68-0.82c-0.71,0-1.31,0.28-1.7,0.83c-0.34,0.48-0.48,1.04-0.48,1.96c0,0.92,0.13,1.49,0.48,1.96
				c0.39,0.55,0.98,0.83,1.7,0.83c0.7,0,1.13-0.22,1.68-0.83l0.73,0.7C445.05,298.04,444.41,298.31,443.4,298.31"/>
			<rect x="460.14" y="290.9" class="st2" width="1.07" height="7.32"/>
			<path class="st2" d="M464.98,298.22c-1.25,0-1.87-0.88-1.87-1.96v-4.49h-0.92v-0.82h0.92v-2.43l1.07-0.32v2.75h1.56v0.82h-1.56
				v4.46c0,0.67,0.31,1.07,1,1.07h0.57v0.92"/>
			<path class="st2" d="M475.17,298.22c-1.28,0-1.86-0.83-1.86-1.95v-7.76l1.07-0.32v8.03c0,0.72,0.24,1.07,0.98,1.07h0.58v0.92"/>
			<rect x="460.13" y="288.2" class="st2" width="1.11" height="1.11"/>
			<path class="st2" d="M458.31,291.45c-0.39-0.39-1.04-0.64-1.79-0.64c-0.8,0-1.47,0.18-2.07,0.95c-0.04-0.15-0.08-0.28-0.13-0.4
				c-0.05-0.13-0.12-0.25-0.19-0.38l-1.06,0.5c0.2,0.41,0.31,0.85,0.31,1.32v7.84h1.07v-3.29c0.6,0.76,1.26,0.95,2.07,0.95
				c0.74,0,1.4-0.25,1.79-0.64c0.74-0.75,0.89-1.96,0.89-3.11C459.2,293.42,459.05,292.2,458.31,291.45 M456.3,297.36
				c-1.59,0-1.84-1.37-1.84-2.8c0-1.43,0.25-2.79,1.84-2.79c1.59,0,1.83,1.37,1.83,2.79C458.13,295.99,457.89,297.36,456.3,297.36"
				/>
			<path class="st2" d="M452.43,297.48c-0.05-0.19-0.08-0.42-0.08-0.68v-3.55c0-1.59-0.97-2.44-2.93-2.44
				c-1.19,0-1.93,0.24-2.59,1.09l0.73,0.67c0.43-0.61,0.91-0.83,1.85-0.83c1.34,0,1.87,0.54,1.87,1.61v0.7h-2.2
				c-1.64,0-2.53,0.83-2.53,2.11c0,0.58,0.19,1.13,0.55,1.49c0.46,0.48,1.06,0.67,2.07,0.67c0.98,0,1.52-0.2,2.11-0.79
				c0.01,0.1,0.03,0.2,0.06,0.32c0.04,0.15,0.09,0.28,0.17,0.38h1.23C452.59,297.95,452.49,297.7,452.43,297.48 M449.27,297.39
				c-1.16,0-1.68-0.4-1.68-1.25c0-0.85,0.54-1.29,1.64-1.29h2.05v0.79c0,0.61-0.12,1.03-0.37,1.26
				C450.44,297.34,449.89,297.39,449.27,297.39"/>
			<path class="st2" d="M472.38,297.48c-0.05-0.19-0.08-0.42-0.08-0.68v-3.55c0-1.59-0.97-2.44-2.93-2.44
				c-1.19,0-1.93,0.24-2.59,1.09l0.73,0.67c0.43-0.61,0.91-0.83,1.84-0.83c1.34,0,1.88,0.54,1.88,1.61v0.7h-2.2
				c-1.64,0-2.53,0.83-2.53,2.11c0,0.58,0.19,1.13,0.55,1.49c0.46,0.48,1.06,0.67,2.07,0.67c0.98,0,1.52-0.2,2.11-0.79
				c0.01,0.1,0.03,0.2,0.06,0.32c0.04,0.15,0.09,0.28,0.17,0.38h1.23C472.54,297.95,472.44,297.7,472.38,297.48 M469.22,297.39
				c-1.16,0-1.68-0.4-1.68-1.25c0-0.85,0.53-1.29,1.64-1.29h2.05v0.79c0,0.61-0.12,1.03-0.37,1.26
				C470.4,297.34,469.85,297.39,469.22,297.39"/>
		</g>
	</g>
	<g>
		<polygon class="st3" points="375.86,288.08 370.89,293.37 365.95,290.58 365.95,298.63 383.73,298.63 		"/>
		<polyline class="st4" points="365.95,298.63 365.95,290.58 365.95,290.58 369.84,294.49 365.95,298.63 		"/>
		<path class="st5" d="M370.52,293.16l-4.57-2.58L370.52,293.16z"/>
		<polyline class="st4" points="380.21,298.63 368.42,291.97 380.21,298.63 		"/>
		<polygon class="st4" points="369.84,294.49 365.95,290.58 369.84,294.49 		"/>
		<path class="st6" d="M373.54,298.2l-3.7-3.71L373.54,298.2z"/>
		<path class="st5" d="M373.96,298.63h-8.02H373.96z"/>
		<polygon class="st7" points="373.96,298.63 365.95,298.63 369.84,294.49 373.54,298.2 		"/>
		<polygon class="st7" points="372.61,297.27 369.84,294.49 369.84,294.49 369.84,294.49 		"/>
		<polygon class="st8" points="375.86,288.08 370.89,293.37 380.21,298.63 383.73,298.63 		"/>
		<polygon class="st5" points="368.42,291.97 365.95,290.58 365.94,290.58 		"/>
		<polygon class="st9" points="369.84,294.49 365.95,290.58 370.89,293.37 369.84,294.49 		"/>
		<path class="st10" d="M369.84,294.49"/>
		<path class="st11" d="M380.21,298.63h-6.25H380.21z"/>
		<polygon class="st12" points="380.21,298.63 373.96,298.63 373.06,297.72 373.96,298.63 380.21,298.63 		"/>
		<polygon class="st13" points="380.21,298.63 373.96,298.63 373.06,297.72 369.84,294.49 370.89,293.37 		"/>
		<path class="st14" d="M373.96,298.63l-1.35-1.36L373.96,298.63z"/>
		<path class="st5" d="M373.96,298.63"/>
		<path class="st15" d="M373.96,298.63l-0.43-0.43L373.96,298.63z"/>
		<polygon class="st15" points="373.06,297.72 369.84,294.49 369.84,294.49 		"/>
		<polygon class="st16" points="369.84,294.49 369.84,294.49 370.89,293.37 		"/>
		<line class="st17" x1="369.84" y1="294.49" x2="369.84" y2="294.49"/>
		<polygon class="st18" points="375.86,288.08 380.21,298.63 383.73,298.63 		"/>
	</g>
</g>
</svg>
